<!DOCTYPE svg PUBLIC "-//W3C//DTD SVG 20010904//EN" "http://www.w3.org/TR/2001/REC-SVG-20010904/DTD/svg10.dtd">
<svg version="1.0" xmlns="http://www.w3.org/2000/svg" width="198px" height="58px" viewBox="0 0 1980 580" preserveAspectRatio="xMidYMid meet">
<g id="layer101" fill="#000000" stroke="none">
</g>
<g id="layer102" fill="#edc139" stroke="none">
<path d="M140 547 c0 -1 7 -37 15 -80 8 -43 15 -87 15 -96 0 -10 -31 -44 -70 -77 -38 -32 -70 -62 -70 -65 0 -3 46 -12 102 -20 l103 -14 44 -82 c30 -54 49 -79 55 -73 6 5 29 42 51 83 l39 75 105 12 105 13 -76 69 -76 68 13 63 c7 34 15 76 18 94 l6 31 -96 -44 -97 -45 -93 45 c-51 25 -93 44 -93 43z"/>
<path d="M800 547 c0 -1 7 -37 15 -80 8 -43 15 -87 15 -96 0 -10 -31 -44 -70 -77 -38 -32 -70 -62 -70 -65 0 -3 46 -12 102 -20 l103 -14 44 -82 c30 -54 49 -79 55 -73 6 5 29 42 51 83 l39 75 105 12 105 13 -76 69 -76 68 13 63 c7 34 15 76 18 94 l6 31 -96 -44 -97 -45 -93 45 c-51 25 -93 44 -93 43z"/>
</g>
<g id="layer103" fill="#efd25b" stroke="none">
<path d="M1083 504 l-93 -43 0 -47 0 -46 -81 7 c-53 5 -79 4 -76 -3 4 -5 -26 -38 -66 -72 -39 -34 -73 -66 -75 -69 -1 -4 44 -14 100 -22 l103 -14 44 -82 c30 -54 49 -79 55 -73 6 5 29 42 51 83 l39 75 105 12 105 13 -76 68 -75 68 18 93 c10 51 17 93 16 94 -1 1 -44 -18 -94 -42z"/>
<path d="M173 373 c4 -6 -26 -39 -66 -73 -39 -34 -73 -66 -75 -69 -1 -4 44 -14 100 -22 l103 -14 44 -82 c30 -54 49 -79 55 -73 6 5 29 42 51 83 l39 75 105 12 104 13 -74 68 -74 67 -90 6 c-49 4 -121 9 -159 13 -46 4 -67 2 -63 -4z"/>
</g>
<g id="layer104" fill="#f0e882" stroke="none">
<path d="M1083 504 l-93 -43 0 -166 0 -165 -31 0 -30 0 28 -49 c17 -32 31 -47 38 -41 5 5 28 42 50 83 l39 75 105 12 105 13 -76 68 -75 68 18 93 c10 51 17 93 16 94 -1 1 -44 -18 -94 -42z"/>
<path d="M297 81 c15 -27 31 -47 35 -45 5 3 17 23 28 44 23 44 17 50 -51 50 l-40 0 28 -49z"/>
</g>
<g id="layer105" fill="#c6c6c6" stroke="none">
<path d="M1083 504 l-93 -43 0 -211 c0 -115 2 -210 5 -210 2 0 23 35 47 79 l43 79 104 12 105 13 -76 68 -75 68 18 93 c10 51 17 93 16 94 -1 1 -44 -18 -94 -42z"/>
<path d="M1460 547 c0 -1 7 -37 15 -80 8 -43 15 -87 15 -96 0 -10 -31 -44 -70 -77 -38 -32 -70 -62 -70 -65 0 -3 46 -12 102 -20 l103 -14 44 -82 c30 -54 49 -79 55 -73 6 5 29 42 51 83 l39 75 105 12 105 13 -76 69 -76 68 13 63 c7 34 15 76 18 94 l6 31 -96 -44 -97 -45 -93 45 c-51 25 -93 44 -93 43z"/>
</g>


</svg>